#!OML:ASF F:\VICON\USERDATA\INSTALL\rory3\rory3.ASF
:FULLY-SPECIFIED
:DEGREES
357
root 10.0137 18.0474 13.1397 300.01 -82.5971 61.0849
lowerback 10.6775 -5.25004 -7.93071
upperback 0.606936 -7.81944 3.57981
thorax -3.74886 -3.76673 9.24503
lowerneck 6.74113 -17.7662 -14.3031
upperneck 33.3004 -35.3861 12.1602
head 15.868 -17.2291 1.87731
rclavicle -2.98177e-014 -4.77083e-015
rhumerus -35.6736 -19.9648 -72.5649
rradius 29.8467
rwrist 7.39258
rhand -15.6534 5.91838
rfingers 7.12502
rthumb 10.5345 -23.7976
lclavicle -2.98177e-014 -4.77083e-015
lhumerus -20.4806 -6.73312 91.9104
lradius 41.4387
lwrist -0.47303
lhand -20.4899 24.0288
lfingers 7.12502
lthumb 5.8668 53.9275
rfemur -30.4194 -0.785459 12.9351
rtibia 34.6072
rfoot -5.45593 1.88927
rtoes -6.13739
lfemur 10.156 2.48661 -28.2639
ltibia 11.1279
lfoot -5.38737 -7.26441
ltoes -20.9201
358
root 10.1376 18.0556 13.1565 298.133 -82.7596 62.937
lowerback 10.8243 -5.27651 -7.92217
upperback 0.59668 -7.86186 3.7028
thorax -3.81559 -3.78464 9.3972
lowerneck 6.73012 -17.713 -14.2772
upperneck 33.4293 -35.3148 11.9945
head 15.8679 -17.2063 1.83196
rclavicle -3.47873e-014 3.02153e-014
rhumerus -35.2733 -19.78 -72.5325
rradius 30.0821
rwrist 7.75077
rhand -15.2356 5.80368
rfingers 7.12502
rthumb 10.9375 -23.8914
lclavicle -3.47873e-014 3.02153e-014
lhumerus -21.0558 -6.45444 91.9449
lradius 41.3587
lwrist -0.606751
lhand -21.1037 24.2451
lfingers 7.12502
lthumb 5.27425 54.1595
rfemur -30.5915 -0.899368 13.0005
rtibia 36.1979
rfoot -5.90705 1.17526
rtoes -5.55267
lfemur 9.5089 2.66564 -28.384
ltibia 11.5776
lfoot -5.49034 -7.00276
ltoes -20.7726
359
root 10.2561 18.0639 13.1729 296.449 -82.7938 64.6168
lowerback 10.8725 -5.30792 -7.98058
upperback 0.590123 -7.91233 3.80725
thorax -3.81541 -3.80973 9.55438
lowerneck 6.74439 -17.6874 -14.3383
upperneck 33.5324 -35.3123 11.8881
head 15.9 -17.2163 1.80009
rclavicle 8.60738e-014 -3.33958e-014
rhumerus -34.8592 -19.4984 -72.5372
rradius 30.3131
rwrist 7.63898
rhand -15.2855 5.81692
rfingers 7.12502
rthumb 10.8894 -23.8807
lclavicle 8.60738e-014 -3.33958e-014
lhumerus -21.6144 -6.15772 91.9928
lradius 41.2145
lwrist -0.864691
lhand -21.366 24.3745
lfingers 7.12502
lthumb 5.02095 54.2951
rfemur -30.7419 -1.11012 12.9884
rtibia 37.9055
rfoot -6.42099 0.37942
rtoes -5.77047
lfemur 8.94524 2.68654 -28.6384
ltibia 11.9037
lfoot -5.56044 -6.65947
ltoes -21.1122
360
root 10.3689 18.0747 13.1867 295.132 -82.8436 65.8778
lowerback 10.8893 -5.32551 -7.89789
upperback 0.616686 -7.92667 3.83394
thorax -3.80063 -3.82085 9.53795
lowerneck 6.75076 -17.6809 -14.2716
upperneck 33.5763 -35.377 11.9101
head 15.9265 -17.2356 1.78726
rclavicle 3.81667e-014 -3.81667e-014
rhumerus -34.4372 -19.1962 -72.6458
rradius 30.4559
rwrist 7.32288
rhand -15.6962 5.79983
rfingers 7.12502
rthumb 10.4932 -23.9183
lclavicle 3.81667e-014 -3.81667e-014
lhumerus -22.1731 -5.88151 91.9809
lradius 41.0306
lwrist -1.29158
lhand -20.9121 24.6329
lfingers 7.12502
lthumb 5.45925 54.5426
rfemur -30.7906 -1.3332 13.0072
rtibia 39.6881
rfoot -7.00793 -0.392686
rtoes -6.14618
lfemur 8.51063 2.74705 -28.807
ltibia 12.1674
lfoot -5.61357 -6.34494
ltoes -21.0244
361
root 10.4765 18.0869 13.2003 293.116 -82.9017 67.863
lowerback 10.8641 -5.32797 -7.85688
upperback 0.629368 -7.92269 3.87191
thorax -3.77396 -3.82232 9.55119
lowerneck 6.75497 -17.672 -14.1959
upperneck 33.5982 -35.4274 11.9291
head 15.936 -17.2492 1.77695
rclavicle 1.41137e-013 -5.88403e-014
rhumerus -34.0413 -18.5923 -72.8707
rradius 30.7067
rwrist 6.64118
rhand -15.984 5.6934
rfingers 7.12502
rthumb 10.2156 -24.0386
lclavicle 1.41137e-013 -5.88403e-014
lhumerus -22.816 -5.68179 91.9927
lradius 40.8729
lwrist -1.50937
lhand -20.7239 24.768
lfingers 7.12502
lthumb 5.64088 54.6729
rfemur -30.8321 -1.70003 12.989
rtibia 41.4817
rfoot -7.34473 -0.625773
rtoes -5.58671
lfemur 8.0513 2.85309 -29.0037
ltibia 12.4496
lfoot -5.64355 -6.04723
ltoes -20.955
